<svg xmlns="http://www.w3.org/2000/svg" width="256" height="256" viewBox="0 0 100 100"><rect width="100" height="100" rx="20" fill="#040028"></rect><path d="M34.39 60.35L34.39 60.35Q33.52 61.09 32.14 61.52Q30.77 61.96 28.96 61.96L28.96 61.96Q26.55 61.96 24.98 61.36Q23.40 60.75 22.93 59.28L22.93 59.28Q21.06 53.38 19.85 49.73Q18.64 46.08 17.97 43.33L17.97 43.33L17.64 43.33Q17.44 47.29 17.34 50.54Q17.24 53.79 17.20 56.87Q17.17 59.95 17.07 63.10Q16.97 66.25 16.77 70.07L16.77 70.07Q15.90 70.40 14.49 70.64Q13.08 70.87 11.68 70.87L11.68 70.87Q8.73 70.87 7.09 69.93Q5.45 68.99 5.45 66.52L5.45 66.52Q5.45 64.44 5.65 60.45Q5.85 56.47 6.15 51.64Q6.45 46.82 6.79 41.73Q7.12 36.63 7.39 32.35L7.39 32.35Q7.92 31.47 9.73 30.47Q11.54 29.46 14.83 29.46L14.83 29.46Q18.38 29.46 20.39 30.57Q22.40 31.68 23.33 34.15L23.33 34.15Q23.94 35.76 24.64 37.84Q25.34 39.92 26.05 42.13Q26.75 44.34 27.42 46.52Q28.09 48.69 28.63 50.44L28.63 50.44L28.96 50.44Q30.57 44.81 32.18 39.55Q33.79 34.29 35.13 30.74L35.13 30.74Q36.13 30.20 37.71 29.83Q39.28 29.46 41.22 29.46L41.22 29.46Q44.51 29.46 46.58 30.44Q48.66 31.41 49.00 33.22L49.00 33.22Q49.26 34.56 49.56 37.34Q49.87 40.12 50.20 43.60Q50.54 47.09 50.87 50.97Q51.21 54.86 51.51 58.44Q51.81 62.03 52.01 65.01Q52.21 67.99 52.28 69.60L52.28 69.60Q51.14 70.27 49.90 70.57Q48.66 70.87 46.72 70.87L46.72 70.87Q44.17 70.87 42.43 70.00Q40.69 69.13 40.55 66.58L40.55 66.58Q40.15 59.28 40.05 53.45Q39.95 47.62 39.75 43.67L39.75 43.67L39.41 43.67Q38.74 46.28 37.47 50.23Q36.20 54.19 34.39 60.35ZM93.15 40.39L93.15 40.39Q93.15 43.40 91.47 45.51Q89.80 47.62 86.78 48.83L86.78 48.83Q94.56 51.37 94.56 58.41L94.56 58.41Q94.56 65.04 89.63 68.22Q84.71 71.41 75.46 71.41L75.46 71.41Q74.32 71.41 72.78 71.34Q71.24 71.27 69.60 71.07Q67.96 70.87 66.35 70.57Q64.74 70.27 63.40 69.73L63.40 69.73Q59.72 68.32 59.72 64.84L59.72 64.84L59.72 33.55Q59.72 32.14 60.49 31.37Q61.26 30.60 62.60 30.13L62.60 30.13Q64.87 29.33 68.29 28.96Q71.71 28.59 75.33 28.59L75.33 28.59Q83.90 28.59 88.53 31.47Q93.15 34.36 93.15 40.39ZM82.56 57.87L82.56 57.87Q82.56 53.79 77.07 53.79L77.07 53.79L71.11 53.79L71.11 61.96Q72.04 62.23 73.52 62.33Q74.99 62.43 76.33 62.43L76.33 62.43Q79.01 62.43 80.79 61.32Q82.56 60.22 82.56 57.87ZM71.11 37.71L71.11 45.61L76.00 45.61Q78.88 45.61 80.18 44.54Q81.49 43.47 81.49 41.39L81.49 41.39Q81.49 39.58 79.98 38.51Q78.47 37.44 75.46 37.44L75.46 37.44Q74.45 37.44 73.15 37.50Q71.84 37.57 71.11 37.71L71.11 37.71Z" fill="#ffffff"></path></svg>