<?xml version="1.0" encoding="UTF-8"?>
<svg xmlns="http://www.w3.org/2000/svg" xmlns:xlink="http://www.w3.org/1999/xlink" viewBox="0 0 48 48" width="48px" height="48px">
<g id="surface3024529">
<path style=" stroke:none;fill-rule:nonzero;fill:rgb(80.000001%,80.000001%,80.000001%);fill-opacity:1;" d="M 24 24.238281 C 23.867188 24.238281 23.761719 24.132812 23.761719 24 C 23.761719 23.867188 23.867188 23.761719 24 23.761719 C 24.132812 23.761719 24.238281 23.867188 24.238281 24 C 24.238281 24.132812 24.132812 24.238281 24 24.238281 Z M 24 24.238281 "/>
<path style=" stroke:none;fill-rule:nonzero;fill:rgb(93.725491%,28.235295%,13.725491%);fill-opacity:1;" d="M 43.339844 17.308594 C 41.324219 13.199219 37.507812 9.96875 33.472656 7.933594 C 29.421875 5.878906 24.734375 4.800781 20.207031 5.519531 C 12.738281 6.703125 5.492188 12.175781 3.363281 19.523438 C 3.363281 19.609375 3.34375 19.683594 3.296875 19.769531 C 3.257812 19.902344 3.222656 20.042969 3.191406 20.175781 C 3.144531 20.269531 3.097656 20.367188 3.058594 20.46875 C 3.050781 20.554688 3.03125 20.648438 3.023438 20.726562 C 2.9375 21.113281 2.832031 21.503906 2.765625 21.890625 C 2.632812 22.621094 2.664062 23.378906 2.40625 24.066406 C 2.386719 24.265625 2.359375 24.464844 2.332031 24.664062 C 2.332031 24.691406 2.332031 24.710938 2.332031 24.730469 C 2.285156 25.148438 2.246094 25.5625 2.207031 25.980469 C 2.132812 26.851562 2.09375 27.722656 2.105469 28.59375 C 2.132812 30.308594 2.332031 32.023438 2.757812 33.679688 C 3.582031 36.832031 5.171875 39.816406 7.679688 41.945312 C 9.40625 43.414062 11.421875 44.378906 13.589844 45.003906 C 15.957031 45.695312 18.417969 46.082031 20.890625 46.09375 C 25.765625 46.101562 30.660156 44.777344 34.675781 41.953125 C 42.101562 36.738281 47.695312 26.160156 43.339844 17.308594 Z M 36.742188 30.488281 C 36.710938 31.53125 36.578125 32.636719 36.003906 33.527344 C 35.367188 34.523438 34.441406 35.164062 33.339844 35.589844 C 31.070312 36.480469 28.570312 36.480469 26.164062 36.398438 C 23.210938 36.300781 20.273438 36.074219 17.320312 36.199219 C 15.390625 36.273438 13.152344 36.414062 11.402344 35.421875 C 9.367188 34.277344 8.78125 31.890625 8.582031 29.722656 C 8.46875 28.507812 8.449219 27.296875 8.410156 26.074219 C 8.363281 24.890625 8.230469 23.707031 8.289062 22.523438 C 8.351562 21.398438 8.535156 20.253906 9.082031 19.25 C 9.574219 18.332031 10.265625 17.5625 11.03125 16.882812 C 11.582031 16.652344 12.140625 16.445312 12.71875 16.277344 C 15.398438 16.21875 18.070312 16.277344 20.75 16.3125 C 23.609375 16.351562 26.4375 15.847656 29.289062 15.6875 C 31.078125 15.585938 33.21875 15.59375 34.667969 16.824219 C 36.417969 18.300781 36.542969 21.019531 36.550781 23.140625 C 36.550781 24.464844 36.476562 25.800781 36.542969 27.125 C 36.589844 28.253906 36.769531 29.359375 36.742188 30.488281 Z M 36.742188 30.488281 "/>
<path style=" stroke:none;fill-rule:nonzero;fill:rgb(83.92157%,89.803922%,89.803922%);fill-opacity:1;" d="M 35.671875 29.511719 C 35.59375 28.328125 35.472656 27.15625 35.480469 25.972656 C 35.492188 24.625 35.558594 23.28125 35.472656 21.9375 C 35.394531 20.761719 35.273438 19.371094 34.621094 18.359375 C 33.558594 16.703125 31.363281 16.636719 29.59375 16.730469 C 26.730469 16.882812 23.882812 17.402344 21.003906 17.363281 C 18.4375 17.335938 15.882812 17.277344 13.316406 17.316406 C 13.296875 17.316406 13.285156 17.316406 13.269531 17.316406 C 13.136719 17.316406 13.003906 17.316406 12.878906 17.328125 C 12.804688 17.328125 12.726562 17.328125 12.644531 17.328125 C 12.644531 17.335938 12.632812 17.335938 12.632812 17.34375 C 12.464844 17.375 12.292969 17.410156 12.140625 17.476562 C 12.074219 17.507812 12.019531 17.535156 11.953125 17.574219 C 11.921875 17.5625 11.894531 17.542969 11.867188 17.523438 C 10.523438 18.679688 9.566406 20.074219 9.367188 21.898438 C 9.167969 23.671875 9.421875 25.496094 9.480469 27.277344 C 9.535156 29.078125 9.574219 31.019531 10.3125 32.695312 C 10.96875 34.171875 12.214844 34.851562 13.769531 35.082031 C 14.773438 35.222656 15.777344 35.214844 16.789062 35.175781 C 18.183594 35.117188 19.574219 35.097656 20.976562 35.128906 C 23.683594 35.183594 26.402344 35.507812 29.097656 35.355469 C 31.21875 35.230469 34.316406 34.84375 35.292969 32.617188 C 35.726562 31.644531 35.738281 30.554688 35.671875 29.511719 Z M 25.757812 26 C 25.746094 26.09375 25.71875 26.1875 25.644531 26.285156 C 25.332031 26.691406 24.792969 26.957031 24.363281 27.242188 C 23.890625 27.5625 23.410156 27.863281 22.925781 28.175781 C 21.96875 28.800781 21.023438 29.4375 20.140625 30.15625 C 19.941406 30.316406 19.734375 30.289062 19.582031 30.175781 C 19.441406 30.109375 19.347656 29.96875 19.328125 29.769531 C 19.214844 27.304688 19.042969 24.84375 19.042969 22.382812 C 19.042969 22.097656 19.222656 21.929688 19.441406 21.863281 C 19.566406 21.796875 19.726562 21.785156 19.894531 21.871094 C 20.53125 22.210938 21.144531 22.589844 21.78125 22.941406 C 22.375 23.28125 23.066406 23.527344 23.644531 23.886719 C 24.015625 24.125 24.375 24.371094 24.742188 24.609375 C 24.914062 24.722656 25.085938 24.835938 25.265625 24.929688 C 25.332031 24.96875 25.398438 25.003906 25.472656 25.035156 C 25.492188 25.042969 25.5 25.042969 25.5 25.042969 C 25.9375 25.148438 26.144531 25.78125 25.757812 26 Z M 25.757812 26 "/>
<path style=" stroke:none;fill-rule:nonzero;fill:rgb(93.725491%,28.235295%,13.725491%);fill-opacity:1;" d="M 24.546875 25.734375 C 24.128906 25.46875 23.722656 25.183594 23.304688 24.921875 C 22.726562 24.550781 22.054688 24.304688 21.457031 23.972656 C 21.003906 23.71875 20.550781 23.453125 20.09375 23.1875 C 20.125 25.035156 20.226562 26.871094 20.320312 28.71875 C 20.976562 28.234375 21.65625 27.78125 22.347656 27.335938 C 22.832031 27.023438 23.3125 26.710938 23.789062 26.398438 C 24.023438 26.238281 24.261719 26.074219 24.496094 25.914062 C 24.546875 25.875 24.59375 25.839844 24.648438 25.800781 C 24.609375 25.773438 24.582031 25.753906 24.546875 25.734375 Z M 24.546875 25.734375 "/>
<path style=" stroke:none;fill-rule:nonzero;fill:rgb(0%,0%,0%);fill-opacity:1;" d="M 43.3125 15.328125 C 40.925781 11.503906 37.0625 8.550781 33.019531 6.65625 C 28.917969 4.742188 24.222656 3.863281 19.734375 4.636719 C 11.988281 5.984375 4.59375 11.710938 2.417969 19.382812 C 2.105469 19.902344 2.058594 20.621094 1.925781 21.199219 C 1.828125 21.605469 1.761719 22.023438 1.707031 22.441406 C 1.695312 22.476562 1.695312 22.523438 1.6875 22.5625 C 1.679688 22.589844 1.667969 22.609375 1.667969 22.636719 C 1.59375 23.035156 1.527344 23.433594 1.46875 23.832031 C 1.46875 23.839844 1.460938 23.839844 1.460938 23.851562 C 1.414062 23.964844 1.402344 24.066406 1.421875 24.152344 C 1.328125 24.921875 1.261719 25.6875 1.203125 26.453125 C 1.128906 27.535156 1.121094 28.621094 1.175781 29.703125 C 1.300781 31.8125 1.707031 33.914062 2.433594 35.902344 C 3.882812 39.863281 6.742188 43.148438 10.589844 44.929688 C 12.773438 45.929688 15.207031 46.507812 17.585938 46.820312 C 20 47.132812 22.460938 47.113281 24.875 46.765625 C 29.695312 46.0625 34.203125 43.953125 37.761719 40.628906 C 41.210938 37.417969 43.917969 33.28125 45.160156 28.71875 C 46.417969 24.171875 45.820312 19.351562 43.3125 15.328125 Z M 34.667969 41.964844 C 30.652344 44.785156 25.757812 46.113281 20.878906 46.101562 C 18.410156 46.09375 15.949219 45.703125 13.582031 45.011719 C 11.410156 44.378906 9.394531 43.421875 7.671875 41.953125 C 5.164062 39.824219 3.570312 36.839844 2.746094 33.6875 C 2.3125 32.03125 2.121094 30.316406 2.09375 28.605469 C 2.074219 27.734375 2.113281 26.863281 2.199219 25.992188 C 2.238281 25.574219 2.273438 25.15625 2.320312 24.742188 C 2.320312 24.722656 2.320312 24.691406 2.320312 24.675781 C 2.351562 24.476562 2.378906 24.277344 2.398438 24.078125 C 2.652344 23.386719 2.625 22.621094 2.757812 21.898438 C 2.832031 21.511719 2.929688 21.125 3.011719 20.734375 C 3.03125 20.660156 3.042969 20.574219 3.050781 20.480469 C 3.089844 20.386719 3.136719 20.28125 3.183594 20.1875 C 3.222656 20.054688 3.25 19.910156 3.289062 19.777344 C 3.335938 19.695312 3.363281 19.609375 3.355469 19.53125 C 5.492188 12.175781 12.738281 6.703125 20.207031 5.519531 C 24.742188 4.800781 29.421875 5.878906 33.472656 7.933594 C 37.507812 9.96875 41.3125 13.207031 43.339844 17.308594 C 47.695312 26.160156 42.101562 36.738281 34.667969 41.964844 Z M 34.667969 41.964844 "/>
<path style=" stroke:none;fill-rule:nonzero;fill:rgb(0%,0%,0%);fill-opacity:1;" d="M 36.542969 27.136719 C 36.484375 25.808594 36.5625 24.476562 36.550781 23.148438 C 36.542969 21.027344 36.417969 18.320312 34.667969 16.835938 C 33.21875 15.601562 31.078125 15.601562 29.289062 15.699219 C 26.4375 15.859375 23.609375 16.359375 20.75 16.324219 C 18.070312 16.285156 15.398438 16.238281 12.71875 16.285156 C 12.140625 16.445312 11.582031 16.652344 11.03125 16.890625 C 10.265625 17.574219 9.574219 18.339844 9.082031 19.257812 C 8.542969 20.269531 8.351562 21.40625 8.289062 22.535156 C 8.222656 23.71875 8.363281 24.902344 8.410156 26.085938 C 8.457031 27.296875 8.46875 28.519531 8.582031 29.730469 C 8.789062 31.898438 9.375 34.285156 11.402344 35.429688 C 13.152344 36.414062 15.390625 36.28125 17.320312 36.207031 C 20.285156 36.085938 23.210938 36.3125 26.164062 36.40625 C 28.570312 36.480469 31.070312 36.492188 33.339844 35.601562 C 34.429688 35.175781 35.359375 34.53125 36.003906 33.535156 C 36.578125 32.648438 36.710938 31.539062 36.742188 30.496094 C 36.769531 29.359375 36.589844 28.253906 36.542969 27.136719 Z M 35.300781 32.617188 C 34.328125 34.84375 31.230469 35.230469 29.109375 35.355469 C 26.402344 35.507812 23.683594 35.183594 20.984375 35.128906 C 19.59375 35.097656 18.191406 35.117188 16.800781 35.175781 C 15.796875 35.214844 14.78125 35.222656 13.777344 35.082031 C 12.226562 34.863281 10.96875 34.171875 10.324219 32.695312 C 9.585938 31.019531 9.546875 29.078125 9.488281 27.277344 C 9.433594 25.496094 9.1875 23.671875 9.375 21.898438 C 9.574219 20.074219 10.53125 18.679688 11.875 17.523438 C 11.902344 17.542969 11.933594 17.5625 11.960938 17.574219 C 12.019531 17.535156 12.085938 17.507812 12.152344 17.476562 C 12.3125 17.410156 12.472656 17.375 12.644531 17.34375 C 12.644531 17.335938 12.652344 17.335938 12.652344 17.328125 C 12.726562 17.328125 12.804688 17.328125 12.890625 17.328125 C 13.023438 17.316406 13.152344 17.316406 13.277344 17.316406 C 13.296875 17.316406 13.316406 17.316406 13.324219 17.316406 C 15.890625 17.277344 18.445312 17.328125 21.011719 17.363281 C 23.882812 17.402344 26.730469 16.871094 29.601562 16.730469 C 31.371094 16.636719 33.570312 16.703125 34.628906 18.359375 C 35.28125 19.382812 35.40625 20.761719 35.480469 21.9375 C 35.566406 23.28125 35.5 24.625 35.492188 25.972656 C 35.480469 27.15625 35.605469 28.328125 35.679688 29.511719 C 35.738281 30.554688 35.726562 31.644531 35.300781 32.617188 Z M 35.300781 32.617188 "/>
<path style=" stroke:none;fill-rule:nonzero;fill:rgb(0%,0%,0%);fill-opacity:1;" d="M 25.492188 25.0625 C 25.484375 25.0625 25.472656 25.054688 25.464844 25.054688 C 25.386719 25.023438 25.320312 24.988281 25.253906 24.949219 C 25.074219 24.855469 24.90625 24.742188 24.734375 24.625 C 24.363281 24.390625 24.015625 24.132812 23.636719 23.90625 C 23.058594 23.539062 22.375 23.292969 21.769531 22.960938 C 21.144531 22.609375 20.519531 22.230469 19.886719 21.890625 C 19.714844 21.796875 19.566406 21.804688 19.433594 21.882812 C 19.222656 21.945312 19.035156 22.117188 19.035156 22.402344 C 19.035156 24.863281 19.203125 27.324219 19.316406 29.789062 C 19.328125 29.996094 19.433594 30.128906 19.574219 30.195312 C 19.726562 30.316406 19.933594 30.335938 20.132812 30.175781 C 21.011719 29.457031 21.960938 28.820312 22.917969 28.195312 C 23.398438 27.882812 23.882812 27.570312 24.355469 27.257812 C 24.78125 26.976562 25.320312 26.699219 25.632812 26.304688 C 25.710938 26.207031 25.738281 26.113281 25.746094 26.019531 C 26.144531 25.78125 25.9375 25.148438 25.492188 25.0625 Z M 24.488281 25.90625 C 24.25 26.066406 24.015625 26.226562 23.777344 26.386719 C 23.304688 26.710938 22.820312 27.011719 22.339844 27.324219 C 21.65625 27.769531 20.976562 28.226562 20.3125 28.707031 C 20.21875 26.871094 20.113281 25.023438 20.085938 23.179688 C 20.539062 23.433594 20.996094 23.699219 21.449219 23.964844 C 22.046875 24.304688 22.71875 24.542969 23.296875 24.910156 C 23.710938 25.175781 24.117188 25.46875 24.535156 25.726562 C 24.5625 25.746094 24.601562 25.761719 24.628906 25.78125 C 24.59375 25.828125 24.546875 25.867188 24.488281 25.90625 Z M 24.488281 25.90625 "/>
</g>
</svg>
