<?xml version="1.0" encoding="UTF-8"?>
<svg xmlns="http://www.w3.org/2000/svg" xmlns:xlink="http://www.w3.org/1999/xlink" viewBox="0 0 48 48" width="48px" height="48px">
<g id="surface3022866">
<path style=" stroke:none;fill-rule:nonzero;fill:rgb(80.000001%,80.000001%,80.000001%);fill-opacity:1;" d="M 24 24.238281 C 23.867188 24.238281 23.761719 24.132812 23.761719 24 C 23.761719 23.867188 23.867188 23.761719 24 23.761719 C 24.132812 23.761719 24.238281 23.867188 24.238281 24 C 24.238281 24.132812 24.132812 24.238281 24 24.238281 Z M 24 24.238281 "/>
<path style=" stroke:none;fill-rule:nonzero;fill:rgb(100%,100%,100%);fill-opacity:1;" d="M 41.171875 24 C 41.171875 33.492188 33.492188 41.171875 24 41.171875 C 14.507812 41.171875 6.828125 33.492188 6.828125 24 C 6.828125 14.507812 14.507812 6.828125 24 6.828125 C 33.492188 6.828125 41.171875 14.507812 41.171875 24 Z M 41.171875 24 "/>
<path style=" stroke:none;fill-rule:nonzero;fill:rgb(27.058825%,35.294119%,39.215687%);fill-opacity:1;" d="M 20.96875 41.171875 L 20.96875 35.613281 C 20.96875 35.3125 21.171875 35.109375 21.476562 35.109375 C 21.777344 35.109375 21.980469 35.3125 21.980469 35.613281 L 21.980469 41.171875 L 24 41.171875 L 24 34.605469 C 24 34.300781 24.203125 34.101562 24.503906 34.101562 C 24.808594 34.101562 25.011719 34.300781 25.011719 34.605469 L 25.011719 41.171875 L 27.03125 41.171875 L 27.03125 35.613281 C 27.03125 35.3125 27.230469 35.109375 27.535156 35.109375 C 27.839844 35.109375 28.039062 35.3125 28.039062 35.613281 L 28.039062 41.171875 L 29.859375 41.171875 C 30.058594 40.867188 30.058594 40.5625 30.058594 40.058594 L 30.058594 36.121094 C 30.058594 33.898438 28.140625 30.867188 25.71875 30.867188 L 23.191406 30.867188 C 20.867188 30.867188 18.847656 34 18.847656 36.121094 L 18.847656 40.058594 C 18.847656 40.464844 18.949219 40.867188 19.050781 41.171875 Z M 40.261719 26.425781 C 40.261719 26.425781 38.949219 26.019531 37.835938 26.019531 L 37.734375 26.019531 C 36.625 26.019531 34.808594 26.324219 34.808594 26.324219 C 34.707031 26.324219 34.707031 26.324219 34.707031 26.222656 C 34.707031 26.121094 34.707031 26.121094 34.808594 26.121094 C 34.90625 26.121094 36.828125 25.816406 37.9375 25.816406 C 39.050781 25.816406 40.363281 26.222656 40.464844 26.222656 C 40.5625 26.222656 40.5625 26.324219 40.5625 26.425781 C 40.363281 26.324219 40.363281 26.425781 40.261719 26.425781 Z M 39.957031 27.230469 C 39.957031 27.230469 38.542969 26.828125 37.332031 26.828125 C 36.421875 26.828125 34.300781 27.03125 34.199219 27.03125 C 34.101562 27.03125 34.101562 27.03125 34.101562 26.929688 C 34.101562 26.828125 34.101562 26.828125 34.199219 26.828125 C 34.300781 26.828125 36.421875 26.625 37.332031 26.625 C 38.644531 26.625 39.957031 27.03125 39.957031 27.03125 C 40.058594 27.03125 40.058594 27.132812 40.058594 27.230469 C 40.058594 27.132812 40.058594 27.230469 39.957031 27.230469 Z M 7.636719 26.425781 C 7.535156 26.425781 7.535156 26.425781 7.535156 26.324219 C 7.535156 26.222656 7.535156 26.222656 7.636719 26.121094 C 8.445312 25.917969 10.0625 25.617188 10.972656 25.617188 C 11.777344 25.617188 14.507812 25.816406 14.605469 25.816406 C 14.707031 25.816406 14.707031 25.917969 14.707031 25.917969 C 14.707031 26.019531 14.605469 26.019531 14.605469 26.019531 C 14.605469 26.019531 11.878906 25.816406 11.070312 25.816406 C 9.960938 26.019531 8.445312 26.222656 7.636719 26.425781 Z M 8.042969 27.9375 C 8.042969 27.9375 7.941406 27.9375 7.941406 27.839844 C 7.941406 27.738281 7.941406 27.738281 7.941406 27.636719 C 8.042969 27.636719 9.355469 26.828125 10.871094 26.625 C 12.183594 26.425781 14.910156 26.726562 15.113281 26.726562 C 15.214844 26.726562 15.214844 26.828125 15.214844 26.828125 C 15.214844 26.929688 15.113281 26.929688 15.113281 26.929688 C 15.113281 26.929688 12.285156 26.625 10.972656 26.828125 C 9.457031 27.132812 8.042969 27.9375 8.042969 27.9375 Z M 8.042969 27.9375 "/>
<path style=" stroke:none;fill-rule:nonzero;fill:rgb(27.058825%,35.294119%,39.215687%);fill-opacity:1;" d="M 14.101562 23.496094 C 14.101562 19.050781 18.746094 14.910156 24.503906 14.910156 C 30.261719 14.910156 34.90625 18.949219 34.90625 23.496094 C 34.90625 28.039062 31.574219 31.070312 24.503906 31.070312 C 17.433594 31.070312 14.101562 27.9375 14.101562 23.496094 Z M 14.101562 23.496094 "/>
<path style=" stroke:none;fill-rule:nonzero;fill:rgb(27.058825%,35.294119%,39.215687%);fill-opacity:1;" d="M 28.644531 16.222656 C 28.644531 16.222656 30.363281 13.898438 33.492188 13.898438 C 34.707031 15.113281 33.898438 18.746094 33.492188 19.757812 Z M 20.363281 16.222656 C 20.363281 16.222656 18.648438 13.898438 15.515625 13.898438 C 14.304688 15.113281 15.113281 18.746094 15.515625 19.757812 Z M 20.0625 36.019531 C 20.0625 36.019531 17.738281 36.019531 17.234375 36.019531 C 16.019531 36.019531 14.910156 35.515625 14.40625 34.503906 C 13.800781 33.394531 13.292969 32.179688 11.777344 31.171875 C 11.476562 30.96875 11.679688 30.765625 12.183594 30.765625 C 12.6875 30.867188 13.597656 30.96875 14.304688 31.878906 C 15.011719 32.785156 15.820312 33.898438 17.132812 33.898438 C 18.445312 33.898438 19.859375 33.898438 20.667969 32.988281 Z M 20.0625 36.019531 "/>
<path style=" stroke:none;fill-rule:nonzero;fill:rgb(0%,73.725492%,83.137256%);fill-opacity:1;" d="M 24 3.800781 C 12.890625 3.800781 3.800781 12.890625 3.800781 24 C 3.800781 35.109375 12.890625 44.199219 24 44.199219 C 35.109375 44.199219 44.199219 35.109375 44.199219 24 C 44.199219 12.890625 35.109375 3.800781 24 3.800781 Z M 24 40.160156 C 15.113281 40.160156 7.839844 32.886719 7.839844 24 C 7.839844 15.113281 15.113281 7.839844 24 7.839844 C 32.886719 7.839844 40.160156 15.113281 40.160156 24 C 40.160156 32.886719 32.886719 40.160156 24 40.160156 Z M 24 40.160156 "/>
</g>
</svg>
